# xmcd
#
# Track frame offsets:
#	150
#	53422
#	90657
#	118426
#	160256
#	201643
#	236949
#	287344
#	329614
#
# Disc length: 4622 seconds
# Revision: 0
# Processed by: cddbd v1.5.2PL0 Copyright (c) Steve Scherf et al.
# Submitted via: dBpowerAMP V12.0
#
DISCID=86120c09
DTITLE=Various Artist - Erzählungen, Märchen, Parabeln CD1
DYEAR=1900
DGENRE=Unbekanntes Genre
TTITLE0=Birgit Minichmayr - Die Totenwacht
TTITLE1=Birgit Minichmayr - Da stand sie eines Winterabends...
TTITLE2=Birgit Minichmayr - Erinnerungen ohne Zahl...
TTITLE3=Birgit Minichmayr - Georg strich sich ein paarmal über den Kopf...
TTITLE4=Birgit Minichmayr - Sie presste die Wange auf die Brust der Mutter...
TTITLE5=Birgit Minichmayr - Georg starrte zu ihr hinüber...
TTITLE6=Dagmar von Thomas - Die Sünderin
TTITLE7=Dagmar von Thomas - Dieser Vorwurf traf die Sünderin hart...
TTITLE8=Otto Melliers - Er lasst die Hand küssen
EXTD=
EXTT0=
EXTT1=
EXTT2=
EXTT3=
EXTT4=
EXTT5=
EXTT6=
EXTT7=
EXTT8=
PLAYORDER=
